<svg xmlns="http://www.w3.org/2000/svg" width="100" height="100" viewBox="0 0 100 100"><path fill="#28C23E" d="M67 41.8c-1.4 0-2.6-1.1-2.6-2.6V29.1H54.3c-1 0-1.9-.6-2.3-1.5-.8-1.9.6-3.7 2.3-3.7h12.9c1.3 0 2.4 1.1 2.4 2.4v12.9c0 1.5-1.2 2.6-2.6 2.6M24.2 61.2c0 1.7-1.4 3-3 3-1.7 0-3-1.4-3-3 0-1.7 1.4-3 3-3s3 1.3 3 3m0 11.8c0 1.7-1.4 3-3 3-1.7 0-3-1.4-3-3 0-1.7 1.4-3 3-3s3 1.3 3 3M36 73c0 1.7-1.4 3-3 3-1.7 0-3-1.4-3-3 0-1.7 1.4-3 3-3 1.7 0 3 1.3 3 3"/><path fill="#1A1A3F" d="M93.2 88.6H7.3c-1.3 0-2.4-1.1-2.4-2.4V13c0-1.3 1.1-2.4 2.4-2.4h85.5c1.3 0 2.4 1.1 2.4 2.4v73.2c0 1.3-1.1 2.4-2.4 2.4M9 84.5h81.1V15.8H9v68.7z"/><path fill="#1A1A3F" d="M81.4 88.8c-1.4 0-2.6-1.1-2.6-2.4V13.2c0-1 .6-2 1.5-2.3 1.8-.7 3.6.6 3.6 2.2v73.4c0 1.3-1.1 2.3-2.5 2.3"/></svg>