<svg xmlns="http://www.w3.org/2000/svg" width="100" height="100" viewBox="0 0 100 100"><path fill="#1A1A3F" d="M42.9 82.7c0 1.9-1.6 3.5-3.5 3.5s-3.5-1.6-3.5-3.5 1.6-3.5 3.5-3.5c2 0 3.5 1.6 3.5 3.5"/><path fill="#28C23E" d="M71.2 22.1c0 1.9-1.6 3.5-3.5 3.5s-3.5-1.6-3.5-3.5 1.6-3.5 3.5-3.5c2 0 3.5 1.5 3.5 3.5M63.3 30c0 1.9-1.6 3.5-3.5 3.5s-3.5-1.6-3.5-3.5 1.6-3.5 3.5-3.5 3.5 1.6 3.5 3.5m15.3-15.4c0 1.9-1.6 3.5-3.5 3.5s-3.5-1.6-3.5-3.5 1.6-3.5 3.5-3.5c2 .1 3.5 1.6 3.5 3.5m-16.3 1.7c1.4 1.4 1.4 3.6 0 4.9-1.4 1.4-3.6 1.4-4.9 0-1.4-1.4-1.4-3.6 0-4.9 1.3-1.4 3.5-1.4 4.9 0m0-10.5c1.4 1.4 1.4 3.6 0 4.9-1.4 1.4-3.6 1.4-4.9 0-1.4-1.4-1.4-3.6 0-4.9 1.3-1.3 3.5-1.3 4.9 0M51.9 18.6c1.9 0 3.5 1.6 3.5 3.5s-1.6 3.5-3.5 3.5-3.5-1.6-3.5-3.5c0-2 1.5-3.5 3.5-3.5m-7.5-7.4c1.9 0 3.5 1.6 3.5 3.5s-1.6 3.5-3.5 3.5-3.5-1.6-3.5-3.5c.1-2 1.6-3.5 3.5-3.5m29.1 21.3c-1.4 1.4-3.6 1.4-4.9 0-1.4-1.4-1.4-3.6 0-4.9 1.4-1.4 3.6-1.4 4.9 0 1.4 1.3 1.4 3.5 0 4.9m10.5 0c-1.4 1.4-3.6 1.4-4.9 0-1.4-1.4-1.4-3.6 0-4.9 1.4-1.4 3.6-1.4 4.9 0 1.3 1.3 1.3 3.5 0 4.9m-16.3 8.9c-1.9 0-3.5-1.6-3.5-3.5s1.6-3.5 3.5-3.5 3.5 1.6 3.5 3.5c0 2-1.5 3.5-3.5 3.5m7.5 7.4c-1.9 0-3.5-1.6-3.5-3.5s1.6-3.5 3.5-3.5 3.5 1.6 3.5 3.5c-.1 2-1.6 3.5-3.5 3.5"/><path fill="#1A1A3F" d="M59.6 94.7h-41c-1.5 0-2.7-1.2-2.7-2.7V29.4c0-1.5 1.2-2.7 2.7-2.7H52c1.1 0 2.2.6 2.6 1.7.8 2.1-.7 4.1-2.6 4.1H21.6V89h35.7V39.1c0-1.2.7-2.3 1.7-2.7 2.1-.7 4 .7 4 2.5v52.9c0 1.5-1.2 2.7-2.7 2.7"/><path fill="#1A1A3F" d="M60.6 76.3H19c-1.1 0-2.2-.6-2.6-1.7-.9-2.1.7-4.1 2.6-4.1h41.1c1.1 0 2.2.6 2.6 1.7.8 2.1-.7 4.1-2.6 4.1"/></svg>