<svg xmlns="http://www.w3.org/2000/svg" width="100" height="100" viewBox="0 0 100 100"><path fill="#1A1A3F" d="M65.2 23.1c0 1.7-1.4 3-3.1 3-1.7 0-3-1.4-3-3 0-1.7 1.4-3 3-3 1.8 0 3.1 1.3 3.1 3m9 0c0 1.7-1.4 3-3 3-1.7 0-3-1.4-3-3 0-1.7 1.4-3 3-3 1.7 0 3 1.3 3 3m11 0c0 1.7-1.4 3-3 3-1.7 0-3-1.4-3-3 0-1.7 1.4-3 3-3s3 1.3 3 3"/><path fill="#1A1A3F" d="M92.9 88.9H7.3c-1.3 0-2.4-1.1-2.4-2.4V13c0-1.3 1.1-2.4 2.4-2.4h85.6c1.3 0 2.4 1.1 2.4 2.4v73.4c0 1.4-1.1 2.5-2.4 2.5M9.7 84.1h80.8V15.4H9.7v68.7z"/><path fill="#1A1A3F" d="M82.2 35.2H7.7c-1.3 0-2.4-1.1-2.4-2.4 0-1.3 1.1-2.4 2.4-2.4h74.5c1.3 0 2.4 1.1 2.4 2.4 0 1.4-1.1 2.4-2.4 2.4"/><path fill="#28C23E" d="M37.6 48.4c.9.9.9 2.5 0 3.4l-6.7 6.7 6.7 6.7c.9.9.9 2.4 0 3.4-.9.9-2.4.9-3.4 0l-8.4-8.4c-.9-.9-.9-2.4 0-3.4l8.4-8.4c.9-.9 2.4-.9 3.4 0M60 68.5c-.9-.9-.9-2.5 0-3.4l6.7-6.7-6.7-6.6c-.9-.9-.9-2.4 0-3.4.9-.9 2.4-.9 3.4 0l8.4 8.4c.9.9.9 2.4 0 3.4l-8.4 8.4c-1 .8-2.5.8-3.4-.1m-14.4.8c-.3 0-.6 0-.8-.2-1.2-.5-1.8-1.8-1.4-3l6.3-16.6c.5-1.2 1.8-1.8 3-1.4 1.2.5 1.8 1.8 1.4 3l-6.3 16.6c-.4 1-1.2 1.6-2.2 1.6z"/></svg>