<svg xmlns="http://www.w3.org/2000/svg" width="40" height="40" viewBox="0 0 40 40"><path fill="#1A1A3F" d="M19.9 37.3c-.4 0-.7-.1-1-.4-.4-.4-10.7-10.8-12.6-16.5C5.1 16.8 6 12.7 8.6 9c2.8-3.9 7.1-6.3 11.3-6.3s8.6 2.5 11.5 6.5c2.6 3.6 3.5 7.8 2.3 11.3-1.9 5.7-12.4 16.1-12.8 16.5-.3.2-.6.3-1 .3zm0-31.8c-3.2 0-6.7 2-9 5.2-2.1 2.9-2.8 6.2-1.9 8.9 1.2 3.8 7.6 10.9 10.9 14.4 3.4-3.5 9.9-10.6 11.1-14.4.9-2.7.2-5.9-1.9-8.8-2.4-3.3-5.9-5.3-9.2-5.3z"/><path fill="#28C23E" d="M20 23.5c-3.8 0-6.9-3.1-6.9-6.9s3.1-6.9 6.9-6.9 6.9 3.1 6.9 6.9-3.1 6.9-6.9 6.9zm0-10.9c-2.2 0-4 1.8-4 4s1.8 4 4 4 4-1.8 4-4-1.8-4-4-4z"/></svg>