<svg xmlns="http://www.w3.org/2000/svg" width="40" height="40" viewBox="0 0 40 40"><path fill="#1A1A3F" d="M20.1 25.4c-.3 0-.7-.1-.9-.4-.5-.5-.5-1.3 0-1.8l12-11.8c.5-.5 1.3-.5 1.8 0s.5 1.3 0 1.8L21 25c-.2.3-.5.4-.9.4z"/><path fill="#1A1A3F" d="M19.9 25.4c-.3 0-.6-.1-.9-.4L2.8 9.4c-.5-.5-.5-1.3 0-1.8s1.3-.5 1.8 0l16.2 15.6c.5.5.5 1.3 0 1.8-.2.3-.6.4-.9.4z"/><path fill="#28C23E" d="M38 17.1c0 .9-.7 1.6-1.6 1.6-.9 0-1.6-.7-1.6-1.6s.7-1.6 1.6-1.6 1.6.8 1.6 1.6m-.5-6.3c.6.6.6 1.6 0 2.3-.6.6-1.6.6-2.3 0-.6-.6-.6-1.6 0-2.3.7-.6 1.7-.6 2.3 0m0-3.8c.6.6.6 1.6 0 2.3-.6.6-1.6.6-2.3 0-.6-.6-.6-1.6 0-2.3.7-.7 1.7-.7 2.3 0"/><path fill="#1A1A3F" d="M36.4 33.5H3.3c-.7 0-1.3-.6-1.3-1.3V7.9c0-.7.6-1.3 1.3-1.3h28.6c.7 0 1.3.6 1.3 1.3s-.6 1.3-1.3 1.3H4.6v21.7h30.5V22c0-.7.6-1.3 1.3-1.3s1.3.6 1.3 1.3v10.1c0 .8-.6 1.4-1.3 1.4z"/></svg>