<svg xmlns="http://www.w3.org/2000/svg" width="40" height="40" viewBox="0 0 40 40"><path fill="#1A1A3F" d="M26.2 38c-3.6 0-8.7-4-12.7-8.9-2.6-3.1-4.5-6.4-5.6-9.3-1.5-4.2-.5-6.2.5-7.1.1 0 .1-.1.2-.1 0 0 .1-.1.2-.1l2.6-2.1c.8-.7 1.9-1 3-.9s2.1.6 2.7 1.5l2.1 2.6c1.1 1.3 1.2 3.1.4 4.5l-.1.2-1.8 1.5v.5c.2.8.8 2.2 2.1 3.8 1.3 1.5 2.5 2.4 3.3 2.7.2.1.4.1.5.1l2-1.7.3-.1c1.5-.4 3.1.1 4.1 1.4l2.1 2.6c1.4 1.7 1.2 4.3-.6 5.7L28.8 37c-.1 0-.1.1-.2.1l-.1.1c-.6.6-1.4.8-2.3.8zM13.9 12.1c-.3 0-.7.1-.9.3l-2.9 2.3c-.5.4-.6 1.8.2 4.2.9 2.6 2.7 5.6 5.1 8.5 5 6.1 10.2 8.7 11.4 7.7l.1-.1.2-.1 2.6-2.1c.6-.5.7-1.4.2-2l-2.1-2.6c-.3-.4-.7-.5-1.2-.5L25 29.1c-.4.4-1.4.9-3.1.2-1.4-.6-2.9-1.8-4.3-3.5-1.4-1.6-2.3-3.4-2.6-4.9-.4-1.7.3-2.6.8-3l1.5-1.3c.2-.5.1-1-.2-1.4L15 12.7c-.2-.3-.6-.5-1-.5 0-.1-.1-.1-.1-.1z"/><path fill="#28C23E" d="M27.2 5.3c0 .9-.8 1.7-1.7 1.7-.9 0-1.7-.8-1.7-1.7s.8-1.7 1.7-1.7c.9 0 1.7.8 1.7 1.7m-3.9 3.9c0 .9-.8 1.7-1.7 1.7-.9 0-1.7-.8-1.7-1.7s.8-1.7 1.7-1.7c.9 0 1.7.8 1.7 1.7m-.5-6.7c.7.7.7 1.7 0 2.4s-1.7.7-2.4 0-.7-1.7 0-2.4 1.7-.7 2.4 0m-5.1 1.1c.9 0 1.7.8 1.7 1.7S18.6 7 17.7 7c-.9 0-1.7-.7-1.7-1.7 0-.9.8-1.7 1.7-1.7m10.6 6.8c-.7.7-1.7.7-2.4 0s-.7-1.7 0-2.4 1.7-.7 2.4 0 .7 1.7 0 2.4m-2.8 4.4c-.9 0-1.7-.8-1.7-1.7s.8-1.7 1.7-1.7c.9 0 1.7.8 1.7 1.7s-.8 1.7-1.7 1.7"/></svg>