<svg xmlns="http://www.w3.org/2000/svg" width="100" height="100" viewBox="0 0 100 100"><path fill="#1A1A3F" d="M85.2 40.2c-.3 0-.7-.1-1-.2l-17.9-8.4c-1.1-.5-1.6-1.9-1.1-3l7.4-15.8c.3-.5.7-1 1.3-1.2.6-.2 1.2-.2 1.7.1l17.9 8.4c1.1.5 1.6 1.9 1.1 3l-7.4 15.8c-.3.5-.7 1-1.3 1.2-.1.1-.4.1-.7.1M70.4 28.4l13.8 6.5 5.5-11.7-13.8-6.5-5.5 11.7z"/><path fill="#1A1A3F" d="M88.9 32.3c-.3 0-.6-.1-1-.2L70 23.7c-1.1-.5-1.6-1.9-1.1-3s1.9-1.6 3-1.1l18 8.4c1.1.5 1.6 1.9 1.1 3-.4.9-1.2 1.3-2.1 1.3"/><path fill="#1A1A3F" d="M55.4 80.4c-.3 0-.7-.1-1-.2-.7-.3-1.2-1-1.3-1.8l-1.7-19.5c0-.4 0-.8.2-1.2l21.1-44.8c.3-.5.7-1 1.3-1.2.6-.2 1.2-.2 1.7.1l17.9 8.4c1.1.5 1.6 1.9 1.1 3L73.6 68c-.2.4-.4.7-.8.9L56.7 80c-.4.3-.8.4-1.3.4M56 59l1.4 15.1 12.5-8.6 19.9-42.2L76 16.8 56 59z"/><path fill="#1A1A3F" d="M71.6 69.3c-.3 0-.7-.1-1-.2l-17.9-8.4c-1.1-.5-1.6-1.9-1.1-3s1.9-1.6 3-1.1L72.5 65c1.1.5 1.6 1.9 1.1 3-.4.8-1.2 1.3-2 1.3"/><path fill="#28C23E" d="M57.3 25.9c0 1.6-1.3 2.9-2.9 2.9-1.6 0-2.9-1.3-2.9-2.9s1.3-2.9 2.9-2.9c1.6 0 2.9 1.3 2.9 2.9M11.4 45.4c0 1.6-1.3 2.9-2.9 2.9S5.6 47 5.6 45.4c0-1.6 1.3-2.9 2.9-2.9s2.9 1.3 2.9 2.9m4-8.9c0 1.6-1.3 2.9-2.9 2.9s-2.9-1.3-2.9-2.9c0-1.6 1.3-2.9 2.9-2.9s2.9 1.3 2.9 2.9m8.6-8.8c0 1.6-1.3 2.9-2.9 2.9s-2.9-1.3-2.9-2.9 1.3-2.9 2.9-2.9 2.9 1.3 2.9 2.9m13.8-5.4c0 1.6-1.3 2.9-2.9 2.9-1.6 0-2.9-1.3-2.9-2.9s1.3-2.9 2.9-2.9c1.7 0 2.9 1.3 2.9 2.9"/><path fill="#1A1A3F" d="M39.2 88C20.4 88 5.1 72.7 5.1 53.9c0-1.2 1-2.3 2.3-2.3s2.3 1 2.3 2.3c0 16.3 13.3 29.6 29.6 29.6 3.3 0 6.4-.5 9.5-1.6 1.2-.4 2.5.2 2.9 1.4.4 1.2-.2 2.5-1.4 2.9-3.7 1.2-7.4 1.8-11.1 1.8"/></svg>